<?xml version="1.0" encoding="UTF-8"?>
<svg id="a" data-name="レイヤー 1" xmlns="http://www.w3.org/2000/svg" viewBox="0 0 21.31 20.28">
  <path d="M20.71,5.97c0-1.09-.89-1.97-1.98-1.98h-1.09s0,1.57,0,1.57c0,.55-.45,1-1,1h-3.54c-.55,0-1-.45-1-1v-1.63l-3.06-.03v1.65c0,.55-.45,1-1,1h-3.54c-.55,0-1-.45-1-1v-1.7h-.98c-1.12-.02-2.03.89-2.02,2.01l.1,11.92c0,1.1.9,1.98,2,1.98h16.21c1.11,0,2.01-.91,2-2.02l-.1-11.79ZM19.6,19.13H1.71V7.5h17.88v11.63Z" fill="currentColor" stroke="currentColor" stroke-miterlimit="10"/>
  <path d="M6.08.5h.2c.55,0,1,.45,1,1v3.44h-2.2V1.5c0-.55.45-1,1-1Z" fill="currentColor" stroke="currentColor" stroke-miterlimit="10"/>
  <path d="M14.83.5h.2c.55,0,1,.45,1,1v3.44h-2.2V1.5c0-.55.45-1,1-1Z" fill="currentColor" stroke="currentColor" stroke-miterlimit="10"/>
  <rect x="4.61" y="10.26" width="1.9" height="1.9" fill="currentColor" stroke="currentColor" stroke-miterlimit="10"/>
  <rect x="9.98" y="10.26" width="1.9" height="1.9" fill="currentColor" stroke="currentColor" stroke-miterlimit="10"/>
  <rect x="15.09" y="10.26" width="1.9" height="1.9" fill="currentColor" stroke="currentColor" stroke-miterlimit="10"/>
  <rect x="4.61" y="14.89" width="1.9" height="1.9" fill="currentColor" stroke="currentColor" stroke-miterlimit="10"/>
  <rect x="9.98" y="14.89" width="1.9" height="1.9" fill="currentColor" stroke="currentColor" stroke-miterlimit="10"/>
  <rect x="15.09" y="14.89" width="1.9" height="1.9" fill="currentColor" stroke="currentColor" stroke-miterlimit="10"/>
</svg>