<?xml version="1.0" encoding="UTF-8"?>
<svg id="a" xmlns="http://www.w3.org/2000/svg" viewBox="0 0 22.27 21.21">
  <path d="M18.94,1C16.43,0,13.18,2.04,11.14,5.69,9.38,2.04,6.35-.14,3.81.67.83,1.6-.35,6.25,1.16,11.04c.7,2.21,1.85,4.06,3.17,5.32.54.63,1.23,1.31,2.04,1.96,1.53,1.25,3.05,2.07,4.03,2.28.44.15.91.14,1.34-.02.95-.24,2.42-1.05,3.92-2.25,1.21-.97,2.16-1.97,2.72-2.79.94-1.07,1.77-2.41,2.39-3.96,1.88-4.7,1.05-9.44-1.83-10.6v.02Z" fill="#e60612" stroke="#e60612" stroke-miterlimit="10"/>
</svg>