<?xml version="1.0" encoding="UTF-8"?>
<svg id="a" data-name="レイヤー 1" xmlns="http://www.w3.org/2000/svg" viewBox="0 0 21.9371390319 21.1298270202">
  <circle cx="10.9685695159" cy="10.5649440277" r="7.4829931973" fill="#fff" stroke="currentColor" stroke-miterlimit="10" stroke-width="2"/>
  <circle cx="10.9685695159" cy="10.5649440277" r="2.93164885" fill="currentColor" stroke="currentColor" stroke-miterlimit="10"/>
  <g>
    <path d="M10.6849391448,1.0141627777c-.2640991211.1783447266-.4760742188,1.1823730469-.4760742188,1.1823730469h1.9657592773s-.2285766602-.981628418-.4760742188-1.1823730469c-.0249023438-.0202026367-.9876708984-.0175170898-1.0136108398,0Z" fill="#fff" stroke="currentColor" stroke-miterlimit="10" stroke-width="2"/>
    <path d="M20.9229762542,10.2371242034c-.1783447266-.2640991211-1.1823730469-.4760742188-1.1823730469-.4760742188v1.9657592773s.9816894531-.2285766602,1.1823730469-.4760742188c.0202026367-.0249023438.0175170898-.9876708984,0-1.0136108398Z" fill="#fff" stroke="currentColor" stroke-miterlimit="10" stroke-width="2"/>
    <path d="M1.0141627777,10.8403346527c.1783447266.2640991211,1.1823730469.4761352539,1.1823730469.4761352539v-1.9658203125s-.9816894531.2285766602-1.1823730469.4760742188c-.0202026367.0249023438-.0175170898.9876708984,0,1.0136108398Z" fill="#fff" stroke="currentColor" stroke-miterlimit="10" stroke-width="2"/>
    <path d="M10.6849391448,20.1156642425c.0249023438.0202026367.9876708984.0175170898,1.0136108398,0,.2640991211-.1783447266.4760742188-1.1823730469.4760742188-1.1823730469h-1.9657592773s.2285766602.9816894531.4760742188,1.1823730469Z" fill="#fff" stroke="currentColor" stroke-miterlimit="10" stroke-width="2"/>
    <path d="M17.8696925628,3.4555079925c-.313659668-.0561523438-1.1654663086.5160522461-1.1654663086.5160522461l1.4097290039,1.3700561523s.5202636719-.86328125.4826049805-1.1796875c-.0037841797-.0318603516-.6960449219-.7009277344-.7268676758-.7064208984Z" fill="#fff" stroke="currentColor" stroke-miterlimit="10" stroke-width="2"/>
    <path d="M3.5997340667,4.1914088714c-.0496826172.3147583008.5401000977,1.1545410156.5401000977,1.1545410156l1.3405761719-1.4377441406s-.873840332-.5023193359-1.189453125-.4581298828c-.0317382812.0043945312-.686340332.7103881836-.6912231445.7413330078Z" fill="#fff" stroke="currentColor" stroke-miterlimit="10" stroke-width="2"/>
    <path d="M16.5523707855,17.5241725433s.844909668.549621582,1.1624145508.5228881836c.0319824219-.0026855469.7244262695-.6715698242.7310180664-.7021484375.0668945312-.3115844727-.475769043-1.1825561523-.475769043-1.1825561523l-1.4176635742,1.3618164062Z" fill="#fff" stroke="currentColor" stroke-miterlimit="10" stroke-width="2"/>
    <path d="M3.6108424652,17.2560451019c-.0001220703.032043457.6063232422.7798461914.6362304688.7890625.3046264648.0936279297,1.2192993164-.3716430664,1.2192993164-.3716430664l-1.2340087891-1.5302124023s-.6206665039.794128418-.6215209961,1.1127929688Z" fill="#fff" stroke="currentColor" stroke-miterlimit="10" stroke-width="2"/>
  </g>
</svg>